<mxfile host="app.diagrams.net" modified="2023-09-13T12:19:07.557Z" agent="Mozilla/5.0 (X11; Ubuntu; Linux x86_64; rv:109.0) Gecko/20100101 Firefox/117.0" etag="sjeBvOaiSm_VrN4N0N84" version="21.7.5" type="device">
  <diagram name="Page-1" id="fDmSnbK07hP85v25XaA-">
    <mxGraphModel dx="1434" dy="686" grid="1" gridSize="10" guides="1" tooltips="1" connect="1" arrows="1" fold="1" page="1" pageScale="1" pageWidth="1100" pageHeight="850" math="0" shadow="0">
      <root>
        <mxCell id="0" />
        <mxCell id="1" parent="0" />
        <mxCell id="to9g2E-yPEW7CR5p0k5Z-1" value="VPC" style="points=[[0,0],[0.25,0],[0.5,0],[0.75,0],[1,0],[1,0.25],[1,0.5],[1,0.75],[1,1],[0.75,1],[0.5,1],[0.25,1],[0,1],[0,0.75],[0,0.5],[0,0.25]];outlineConnect=0;gradientColor=none;html=1;whiteSpace=wrap;fontSize=12;fontStyle=0;container=1;pointerEvents=0;collapsible=0;recursiveResize=0;shape=mxgraph.aws4.group;grIcon=mxgraph.aws4.group_vpc;strokeColor=#248814;fillColor=none;verticalAlign=top;align=left;spacingLeft=30;fontColor=#AAB7B8;dashed=0;" vertex="1" parent="1">
          <mxGeometry x="130" y="30" width="920" height="440" as="geometry" />
        </mxCell>
        <mxCell id="to9g2E-yPEW7CR5p0k5Z-2" value="Public subnet" style="points=[[0,0],[0.25,0],[0.5,0],[0.75,0],[1,0],[1,0.25],[1,0.5],[1,0.75],[1,1],[0.75,1],[0.5,1],[0.25,1],[0,1],[0,0.75],[0,0.5],[0,0.25]];outlineConnect=0;gradientColor=none;html=1;whiteSpace=wrap;fontSize=12;fontStyle=0;container=1;pointerEvents=0;collapsible=0;recursiveResize=0;shape=mxgraph.aws4.group;grIcon=mxgraph.aws4.group_security_group;grStroke=0;strokeColor=#248814;fillColor=#E9F3E6;verticalAlign=top;align=left;spacingLeft=30;fontColor=#248814;dashed=0;" vertex="1" parent="to9g2E-yPEW7CR5p0k5Z-1">
          <mxGeometry x="239" y="50" width="240" height="240" as="geometry" />
        </mxCell>
        <mxCell id="to9g2E-yPEW7CR5p0k5Z-5" value="" style="sketch=0;outlineConnect=0;fontColor=#232F3E;gradientColor=none;fillColor=#8C4FFF;strokeColor=none;dashed=0;verticalLabelPosition=bottom;verticalAlign=top;align=center;html=1;fontSize=12;fontStyle=0;aspect=fixed;pointerEvents=1;shape=mxgraph.aws4.nat_gateway;" vertex="1" parent="to9g2E-yPEW7CR5p0k5Z-2">
          <mxGeometry x="23" y="40" width="78" height="78" as="geometry" />
        </mxCell>
        <mxCell id="to9g2E-yPEW7CR5p0k5Z-100" value="" style="sketch=0;points=[[0,0,0],[0.25,0,0],[0.5,0,0],[0.75,0,0],[1,0,0],[0,1,0],[0.25,1,0],[0.5,1,0],[0.75,1,0],[1,1,0],[0,0.25,0],[0,0.5,0],[0,0.75,0],[1,0.25,0],[1,0.5,0],[1,0.75,0]];outlineConnect=0;fontColor=#232F3E;fillColor=#ED7100;strokeColor=#ffffff;dashed=0;verticalLabelPosition=bottom;verticalAlign=top;align=center;html=1;fontSize=12;fontStyle=0;aspect=fixed;shape=mxgraph.aws4.resourceIcon;resIcon=mxgraph.aws4.ec2;" vertex="1" parent="to9g2E-yPEW7CR5p0k5Z-2">
          <mxGeometry x="141" y="50" width="78" height="78" as="geometry" />
        </mxCell>
        <mxCell id="to9g2E-yPEW7CR5p0k5Z-102" value="10.3.14.0/26" style="text;html=1;strokeColor=none;fillColor=none;align=center;verticalAlign=middle;whiteSpace=wrap;rounded=0;" vertex="1" parent="to9g2E-yPEW7CR5p0k5Z-2">
          <mxGeometry x="171" y="10" width="60" height="30" as="geometry" />
        </mxCell>
        <mxCell id="to9g2E-yPEW7CR5p0k5Z-104" value="(elastic IP)" style="text;html=1;strokeColor=none;fillColor=none;align=center;verticalAlign=middle;whiteSpace=wrap;rounded=0;" vertex="1" parent="to9g2E-yPEW7CR5p0k5Z-2">
          <mxGeometry x="32" y="112" width="60" height="38" as="geometry" />
        </mxCell>
        <mxCell id="to9g2E-yPEW7CR5p0k5Z-105" value="public IP" style="text;html=1;strokeColor=none;fillColor=none;align=center;verticalAlign=middle;whiteSpace=wrap;rounded=0;" vertex="1" parent="to9g2E-yPEW7CR5p0k5Z-2">
          <mxGeometry x="150" y="140" width="60" height="38" as="geometry" />
        </mxCell>
        <mxCell id="to9g2E-yPEW7CR5p0k5Z-3" value="Private subnet" style="points=[[0,0],[0.25,0],[0.5,0],[0.75,0],[1,0],[1,0.25],[1,0.5],[1,0.75],[1,1],[0.75,1],[0.5,1],[0.25,1],[0,1],[0,0.75],[0,0.5],[0,0.25]];outlineConnect=0;gradientColor=none;html=1;whiteSpace=wrap;fontSize=12;fontStyle=0;container=1;pointerEvents=0;collapsible=0;recursiveResize=0;shape=mxgraph.aws4.group;grIcon=mxgraph.aws4.group_security_group;grStroke=0;strokeColor=#147EBA;fillColor=#E6F2F8;verticalAlign=top;align=left;spacingLeft=30;fontColor=#147EBA;dashed=0;" vertex="1" parent="to9g2E-yPEW7CR5p0k5Z-1">
          <mxGeometry x="550" y="50" width="240" height="240" as="geometry" />
        </mxCell>
        <mxCell id="to9g2E-yPEW7CR5p0k5Z-92" value="" style="sketch=0;points=[[0,0,0],[0.25,0,0],[0.5,0,0],[0.75,0,0],[1,0,0],[0,1,0],[0.25,1,0],[0.5,1,0],[0.75,1,0],[1,1,0],[0,0.25,0],[0,0.5,0],[0,0.75,0],[1,0.25,0],[1,0.5,0],[1,0.75,0]];outlineConnect=0;fontColor=#232F3E;fillColor=#ED7100;strokeColor=#ffffff;dashed=0;verticalLabelPosition=bottom;verticalAlign=top;align=center;html=1;fontSize=12;fontStyle=0;aspect=fixed;shape=mxgraph.aws4.resourceIcon;resIcon=mxgraph.aws4.ec2;" vertex="1" parent="to9g2E-yPEW7CR5p0k5Z-3">
          <mxGeometry x="81" y="70" width="78" height="78" as="geometry" />
        </mxCell>
        <mxCell id="to9g2E-yPEW7CR5p0k5Z-103" value="10.3.14.64/27" style="text;html=1;strokeColor=none;fillColor=none;align=center;verticalAlign=middle;whiteSpace=wrap;rounded=0;" vertex="1" parent="to9g2E-yPEW7CR5p0k5Z-3">
          <mxGeometry x="159" y="10" width="60" height="30" as="geometry" />
        </mxCell>
        <mxCell id="to9g2E-yPEW7CR5p0k5Z-6" value="" style="sketch=0;outlineConnect=0;fontColor=#232F3E;gradientColor=none;fillColor=#8C4FFF;strokeColor=none;dashed=0;verticalLabelPosition=bottom;verticalAlign=top;align=center;html=1;fontSize=12;fontStyle=0;aspect=fixed;pointerEvents=1;shape=mxgraph.aws4.route_table;" vertex="1" parent="to9g2E-yPEW7CR5p0k5Z-1">
          <mxGeometry x="200" y="246" width="78" height="76" as="geometry" />
        </mxCell>
        <mxCell id="to9g2E-yPEW7CR5p0k5Z-9" value="" style="sketch=0;outlineConnect=0;fontColor=#232F3E;gradientColor=none;fillColor=#8C4FFF;strokeColor=none;dashed=0;verticalLabelPosition=bottom;verticalAlign=top;align=center;html=1;fontSize=12;fontStyle=0;aspect=fixed;pointerEvents=1;shape=mxgraph.aws4.route_table;" vertex="1" parent="to9g2E-yPEW7CR5p0k5Z-1">
          <mxGeometry x="520" y="240" width="78" height="76" as="geometry" />
        </mxCell>
        <mxCell id="to9g2E-yPEW7CR5p0k5Z-101" value="10.3.14.0/24" style="text;html=1;strokeColor=none;fillColor=none;align=center;verticalAlign=middle;whiteSpace=wrap;rounded=0;" vertex="1" parent="to9g2E-yPEW7CR5p0k5Z-1">
          <mxGeometry x="90" y="10" width="60" height="30" as="geometry" />
        </mxCell>
        <mxCell id="to9g2E-yPEW7CR5p0k5Z-17" style="edgeStyle=orthogonalEdgeStyle;rounded=0;orthogonalLoop=1;jettySize=auto;html=1;startArrow=classic;startFill=1;" edge="1" parent="1" source="to9g2E-yPEW7CR5p0k5Z-4" target="to9g2E-yPEW7CR5p0k5Z-2">
          <mxGeometry relative="1" as="geometry" />
        </mxCell>
        <mxCell id="to9g2E-yPEW7CR5p0k5Z-4" value="" style="sketch=0;outlineConnect=0;fontColor=#232F3E;gradientColor=none;fillColor=#8C4FFF;strokeColor=none;dashed=0;verticalLabelPosition=bottom;verticalAlign=top;align=center;html=1;fontSize=12;fontStyle=0;aspect=fixed;pointerEvents=1;shape=mxgraph.aws4.internet_gateway;" vertex="1" parent="1">
          <mxGeometry x="80" y="162" width="78" height="78" as="geometry" />
        </mxCell>
        <mxCell id="to9g2E-yPEW7CR5p0k5Z-60" value="" style="shape=table;startSize=0;container=1;collapsible=0;childLayout=tableLayout;" vertex="1" parent="1">
          <mxGeometry x="260" y="500" width="160" height="120" as="geometry" />
        </mxCell>
        <mxCell id="to9g2E-yPEW7CR5p0k5Z-61" value="" style="shape=tableRow;horizontal=0;startSize=0;swimlaneHead=0;swimlaneBody=0;strokeColor=#d6b656;top=0;left=0;bottom=0;right=0;collapsible=0;dropTarget=0;fillColor=#fff2cc;points=[[0,0.5],[1,0.5]];portConstraint=eastwest;" vertex="1" parent="to9g2E-yPEW7CR5p0k5Z-60">
          <mxGeometry width="160" height="40" as="geometry" />
        </mxCell>
        <mxCell id="to9g2E-yPEW7CR5p0k5Z-62" value="Destination" style="shape=partialRectangle;html=1;whiteSpace=wrap;connectable=0;strokeColor=#d6b656;overflow=hidden;fillColor=#fff2cc;top=0;left=0;bottom=0;right=0;pointerEvents=1;align=center;labelBackgroundColor=none;" vertex="1" parent="to9g2E-yPEW7CR5p0k5Z-61">
          <mxGeometry width="80" height="40" as="geometry">
            <mxRectangle width="80" height="40" as="alternateBounds" />
          </mxGeometry>
        </mxCell>
        <mxCell id="to9g2E-yPEW7CR5p0k5Z-63" value="Target" style="shape=partialRectangle;html=1;whiteSpace=wrap;connectable=0;strokeColor=#d6b656;overflow=hidden;fillColor=#fff2cc;top=0;left=0;bottom=0;right=0;pointerEvents=1;labelBackgroundColor=none;" vertex="1" parent="to9g2E-yPEW7CR5p0k5Z-61">
          <mxGeometry x="80" width="80" height="40" as="geometry">
            <mxRectangle width="80" height="40" as="alternateBounds" />
          </mxGeometry>
        </mxCell>
        <mxCell id="to9g2E-yPEW7CR5p0k5Z-64" value="" style="shape=tableRow;horizontal=0;startSize=0;swimlaneHead=0;swimlaneBody=0;strokeColor=inherit;top=0;left=0;bottom=0;right=0;collapsible=0;dropTarget=0;fillColor=none;points=[[0,0.5],[1,0.5]];portConstraint=eastwest;" vertex="1" parent="to9g2E-yPEW7CR5p0k5Z-60">
          <mxGeometry y="40" width="160" height="40" as="geometry" />
        </mxCell>
        <mxCell id="to9g2E-yPEW7CR5p0k5Z-65" value="0.0.0.0/0&lt;span style=&quot;white-space: pre;&quot;&gt;&#x9;&lt;/span&gt;" style="shape=partialRectangle;html=1;whiteSpace=wrap;connectable=0;strokeColor=inherit;overflow=hidden;fillColor=none;top=0;left=0;bottom=0;right=0;pointerEvents=1;" vertex="1" parent="to9g2E-yPEW7CR5p0k5Z-64">
          <mxGeometry width="80" height="40" as="geometry">
            <mxRectangle width="80" height="40" as="alternateBounds" />
          </mxGeometry>
        </mxCell>
        <mxCell id="to9g2E-yPEW7CR5p0k5Z-66" value="igw" style="shape=partialRectangle;html=1;whiteSpace=wrap;connectable=0;strokeColor=inherit;overflow=hidden;fillColor=none;top=0;left=0;bottom=0;right=0;pointerEvents=1;" vertex="1" parent="to9g2E-yPEW7CR5p0k5Z-64">
          <mxGeometry x="80" width="80" height="40" as="geometry">
            <mxRectangle width="80" height="40" as="alternateBounds" />
          </mxGeometry>
        </mxCell>
        <mxCell id="to9g2E-yPEW7CR5p0k5Z-77" style="shape=tableRow;horizontal=0;startSize=0;swimlaneHead=0;swimlaneBody=0;strokeColor=inherit;top=0;left=0;bottom=0;right=0;collapsible=0;dropTarget=0;fillColor=none;points=[[0,0.5],[1,0.5]];portConstraint=eastwest;" vertex="1" parent="to9g2E-yPEW7CR5p0k5Z-60">
          <mxGeometry y="80" width="160" height="40" as="geometry" />
        </mxCell>
        <mxCell id="to9g2E-yPEW7CR5p0k5Z-78" value="10.3.14.0/24" style="shape=partialRectangle;html=1;whiteSpace=wrap;connectable=0;strokeColor=inherit;overflow=hidden;fillColor=none;top=0;left=0;bottom=0;right=0;pointerEvents=1;" vertex="1" parent="to9g2E-yPEW7CR5p0k5Z-77">
          <mxGeometry width="80" height="40" as="geometry">
            <mxRectangle width="80" height="40" as="alternateBounds" />
          </mxGeometry>
        </mxCell>
        <mxCell id="to9g2E-yPEW7CR5p0k5Z-79" value="local" style="shape=partialRectangle;html=1;whiteSpace=wrap;connectable=0;strokeColor=inherit;overflow=hidden;fillColor=none;top=0;left=0;bottom=0;right=0;pointerEvents=1;" vertex="1" parent="to9g2E-yPEW7CR5p0k5Z-77">
          <mxGeometry x="80" width="80" height="40" as="geometry">
            <mxRectangle width="80" height="40" as="alternateBounds" />
          </mxGeometry>
        </mxCell>
        <mxCell id="to9g2E-yPEW7CR5p0k5Z-80" value="" style="shape=table;startSize=0;container=1;collapsible=0;childLayout=tableLayout;" vertex="1" parent="1">
          <mxGeometry x="609" y="510" width="160" height="120" as="geometry" />
        </mxCell>
        <mxCell id="to9g2E-yPEW7CR5p0k5Z-81" value="" style="shape=tableRow;horizontal=0;startSize=0;swimlaneHead=0;swimlaneBody=0;strokeColor=inherit;top=0;left=0;bottom=0;right=0;collapsible=0;dropTarget=0;fillColor=none;points=[[0,0.5],[1,0.5]];portConstraint=eastwest;" vertex="1" parent="to9g2E-yPEW7CR5p0k5Z-80">
          <mxGeometry width="160" height="40" as="geometry" />
        </mxCell>
        <mxCell id="to9g2E-yPEW7CR5p0k5Z-82" value="Destination" style="shape=partialRectangle;html=1;whiteSpace=wrap;connectable=0;strokeColor=#d6b656;overflow=hidden;fillColor=#fff2cc;top=0;left=0;bottom=0;right=0;pointerEvents=1;align=center;" vertex="1" parent="to9g2E-yPEW7CR5p0k5Z-81">
          <mxGeometry width="80" height="40" as="geometry">
            <mxRectangle width="80" height="40" as="alternateBounds" />
          </mxGeometry>
        </mxCell>
        <mxCell id="to9g2E-yPEW7CR5p0k5Z-83" value="Target" style="shape=partialRectangle;html=1;whiteSpace=wrap;connectable=0;strokeColor=#d6b656;overflow=hidden;fillColor=#fff2cc;top=0;left=0;bottom=0;right=0;pointerEvents=1;" vertex="1" parent="to9g2E-yPEW7CR5p0k5Z-81">
          <mxGeometry x="80" width="80" height="40" as="geometry">
            <mxRectangle width="80" height="40" as="alternateBounds" />
          </mxGeometry>
        </mxCell>
        <mxCell id="to9g2E-yPEW7CR5p0k5Z-84" value="" style="shape=tableRow;horizontal=0;startSize=0;swimlaneHead=0;swimlaneBody=0;strokeColor=inherit;top=0;left=0;bottom=0;right=0;collapsible=0;dropTarget=0;fillColor=none;points=[[0,0.5],[1,0.5]];portConstraint=eastwest;" vertex="1" parent="to9g2E-yPEW7CR5p0k5Z-80">
          <mxGeometry y="40" width="160" height="40" as="geometry" />
        </mxCell>
        <mxCell id="to9g2E-yPEW7CR5p0k5Z-85" value="0.0.0.0/0&lt;span style=&quot;white-space: pre;&quot;&gt;&#x9;&lt;/span&gt;" style="shape=partialRectangle;html=1;whiteSpace=wrap;connectable=0;strokeColor=inherit;overflow=hidden;fillColor=none;top=0;left=0;bottom=0;right=0;pointerEvents=1;" vertex="1" parent="to9g2E-yPEW7CR5p0k5Z-84">
          <mxGeometry width="80" height="40" as="geometry">
            <mxRectangle width="80" height="40" as="alternateBounds" />
          </mxGeometry>
        </mxCell>
        <mxCell id="to9g2E-yPEW7CR5p0k5Z-86" value="nat-gtw" style="shape=partialRectangle;html=1;whiteSpace=wrap;connectable=0;strokeColor=inherit;overflow=hidden;fillColor=none;top=0;left=0;bottom=0;right=0;pointerEvents=1;" vertex="1" parent="to9g2E-yPEW7CR5p0k5Z-84">
          <mxGeometry x="80" width="80" height="40" as="geometry">
            <mxRectangle width="80" height="40" as="alternateBounds" />
          </mxGeometry>
        </mxCell>
        <mxCell id="to9g2E-yPEW7CR5p0k5Z-87" style="shape=tableRow;horizontal=0;startSize=0;swimlaneHead=0;swimlaneBody=0;strokeColor=inherit;top=0;left=0;bottom=0;right=0;collapsible=0;dropTarget=0;fillColor=none;points=[[0,0.5],[1,0.5]];portConstraint=eastwest;" vertex="1" parent="to9g2E-yPEW7CR5p0k5Z-80">
          <mxGeometry y="80" width="160" height="40" as="geometry" />
        </mxCell>
        <mxCell id="to9g2E-yPEW7CR5p0k5Z-88" value="10.3.14.0/24" style="shape=partialRectangle;html=1;whiteSpace=wrap;connectable=0;strokeColor=inherit;overflow=hidden;fillColor=none;top=0;left=0;bottom=0;right=0;pointerEvents=1;" vertex="1" parent="to9g2E-yPEW7CR5p0k5Z-87">
          <mxGeometry width="80" height="40" as="geometry">
            <mxRectangle width="80" height="40" as="alternateBounds" />
          </mxGeometry>
        </mxCell>
        <mxCell id="to9g2E-yPEW7CR5p0k5Z-89" value="local" style="shape=partialRectangle;html=1;whiteSpace=wrap;connectable=0;strokeColor=inherit;overflow=hidden;fillColor=none;top=0;left=0;bottom=0;right=0;pointerEvents=1;" vertex="1" parent="to9g2E-yPEW7CR5p0k5Z-87">
          <mxGeometry x="80" width="80" height="40" as="geometry">
            <mxRectangle width="80" height="40" as="alternateBounds" />
          </mxGeometry>
        </mxCell>
        <mxCell id="to9g2E-yPEW7CR5p0k5Z-90" style="edgeStyle=orthogonalEdgeStyle;rounded=0;orthogonalLoop=1;jettySize=auto;html=1;" edge="1" parent="1" source="to9g2E-yPEW7CR5p0k5Z-6" target="to9g2E-yPEW7CR5p0k5Z-61">
          <mxGeometry relative="1" as="geometry">
            <Array as="points">
              <mxPoint x="369" y="470" />
              <mxPoint x="369" y="470" />
            </Array>
          </mxGeometry>
        </mxCell>
        <mxCell id="to9g2E-yPEW7CR5p0k5Z-91" style="edgeStyle=orthogonalEdgeStyle;rounded=0;orthogonalLoop=1;jettySize=auto;html=1;entryX=0.556;entryY=0;entryDx=0;entryDy=0;entryPerimeter=0;" edge="1" parent="1" source="to9g2E-yPEW7CR5p0k5Z-9" target="to9g2E-yPEW7CR5p0k5Z-81">
          <mxGeometry relative="1" as="geometry">
            <Array as="points">
              <mxPoint x="689" y="423" />
              <mxPoint x="690" y="423" />
              <mxPoint x="690" y="500" />
            </Array>
          </mxGeometry>
        </mxCell>
      </root>
    </mxGraphModel>
  </diagram>
</mxfile>
